<mxfile host="app.diagrams.net" agent="Mozilla/5.0 (Windows NT 10.0; Win64; x64; rv:133.0) Gecko/20100101 Firefox/133.0" version="25.0.3">
  <diagram name="Page-1" id="c4acf3e9-155e-7222-9cf6-157b1a14988f">
    <mxGraphModel dx="1323" dy="1193" grid="1" gridSize="10" guides="1" tooltips="1" connect="1" arrows="1" fold="1" page="1" pageScale="1" pageWidth="850" pageHeight="1100" background="none" math="0" shadow="0">
      <root>
        <mxCell id="0" />
        <mxCell id="1" parent="0" />
        <mxCell id="ZEexUDCB_ptRe4WTlXXO-2" value="&lt;p style=&quot;margin:0px;margin-top:4px;text-align:center;&quot;&gt;&lt;i&gt;&amp;lt;&amp;lt;Interface&amp;gt;&amp;gt;&lt;/i&gt;&lt;br&gt;&lt;b&gt;IFlashcardSource&lt;/b&gt;&lt;/p&gt;&lt;hr size=&quot;1&quot; style=&quot;border-style:solid;&quot;&gt;&lt;p style=&quot;margin:0px;margin-left:4px;&quot;&gt;+ current_word&lt;br&gt;+ current_translation&lt;/p&gt;&lt;p style=&quot;margin:0px;margin-left:4px;&quot;&gt;+ progress&lt;/p&gt;&lt;p style=&quot;margin:0px;margin-left:4px;&quot;&gt;+ total_correct&lt;/p&gt;&lt;p style=&quot;margin:0px;margin-left:4px;&quot;&gt;+ total_wrong&lt;br&gt;&lt;/p&gt;&lt;hr size=&quot;1&quot; style=&quot;border-style:solid;&quot;&gt;&lt;p style=&quot;margin:0px;margin-left:4px;&quot;&gt;+ next()&lt;/p&gt;&lt;p style=&quot;margin:0px;margin-left:4px;&quot;&gt;+ correct_answer()&lt;/p&gt;&lt;p style=&quot;margin:0px;margin-left:4px;&quot;&gt;+ wrong_answer()&lt;/p&gt;&lt;p style=&quot;margin:0px;margin-left:4px;&quot;&gt;+ save_progress()&lt;/p&gt;&lt;p style=&quot;margin:0px;margin-left:4px;&quot;&gt;+ reset_answers()&lt;/p&gt;&lt;p style=&quot;margin:0px;margin-left:4px;&quot;&gt;+ clear_word()&lt;/p&gt;&lt;p style=&quot;margin:0px;margin-left:4px;&quot;&gt;+ try_add_flashcard(flashcard)&lt;br&gt;&lt;/p&gt;&lt;p style=&quot;margin:0px;margin-left:4px;&quot;&gt;&lt;br&gt;&lt;/p&gt;" style="verticalAlign=top;align=left;overflow=fill;html=1;whiteSpace=wrap;" parent="1" vertex="1">
          <mxGeometry x="120" y="485" width="180" height="240" as="geometry" />
        </mxCell>
        <mxCell id="ZEexUDCB_ptRe4WTlXXO-8" value="&lt;p style=&quot;margin:0px;margin-top:4px;text-align:center;&quot;&gt;&lt;b&gt;FlashcardGUI&lt;/b&gt;&lt;/p&gt;&lt;hr size=&quot;1&quot; style=&quot;border-style:solid;&quot;&gt;&lt;p style=&quot;margin:0px;margin-left:4px;&quot;&gt;- __flashcard_source&lt;/p&gt;&lt;p style=&quot;margin:0px;margin-left:4px;&quot;&gt;- __root&lt;/p&gt;&lt;p style=&quot;margin:0px;margin-left:4px;&quot;&gt;- __word&lt;br&gt;&lt;/p&gt;&lt;p style=&quot;margin:0px;margin-left:4px;&quot;&gt;- __word_label&lt;/p&gt;&lt;p style=&quot;margin:0px;margin-left:4px;&quot;&gt;- __entry&lt;/p&gt;&lt;p style=&quot;margin:0px;margin-left:4px;&quot;&gt;- __show_word_button&lt;/p&gt;&lt;p style=&quot;margin:0px;margin-left:4px;&quot;&gt;- __check_button&lt;/p&gt;&lt;p style=&quot;margin:0px;margin-left:4px;&quot;&gt;- __message_label&lt;/p&gt;&lt;p style=&quot;margin:0px;margin-left:4px;&quot;&gt;- __stats&lt;/p&gt;&lt;p style=&quot;margin:0px;margin-left:4px;&quot;&gt;- __stats_label&lt;/p&gt;&lt;p style=&quot;margin:0px;margin-left:4px;&quot;&gt;- __show_progress_button&lt;/p&gt;&lt;p style=&quot;margin:0px;margin-left:4px;&quot;&gt;- __add_word_button&lt;br&gt;&lt;/p&gt;&lt;hr size=&quot;1&quot; style=&quot;border-style:solid;&quot;&gt;&lt;p style=&quot;margin:0px;margin-left:4px;&quot;&gt;- __add_word()&lt;/p&gt;&lt;p style=&quot;margin:0px;margin-left:4px;&quot;&gt;+ show_word()&lt;/p&gt;&lt;p style=&quot;margin:0px;margin-left:4px;&quot;&gt;- __check_translation()&lt;/p&gt;&lt;p style=&quot;margin:0px;margin-left:4px;&quot;&gt;- __correct_answer()&lt;/p&gt;&lt;p style=&quot;margin:0px;margin-left:4px;&quot;&gt;- __wrong_answer()&lt;/p&gt;&lt;p style=&quot;margin:0px;margin-left:4px;&quot;&gt;- __update_stats()&lt;/p&gt;&lt;p style=&quot;margin:0px;margin-left:4px;&quot;&gt;+ clear_word()&lt;/p&gt;&lt;p style=&quot;margin:0px;margin-left:4px;&quot;&gt;+ reset_answers()&lt;/p&gt;&lt;p style=&quot;margin:0px;margin-left:4px;&quot;&gt;+ save_progress()&lt;/p&gt;&lt;p style=&quot;margin:0px;margin-left:4px;&quot;&gt;- __show_progress()&lt;br&gt;&lt;/p&gt;" style="verticalAlign=top;align=left;overflow=fill;html=1;whiteSpace=wrap;" parent="1" vertex="1">
          <mxGeometry x="287" y="40" width="160" height="370" as="geometry" />
        </mxCell>
        <mxCell id="ZEexUDCB_ptRe4WTlXXO-9" value="&lt;p style=&quot;margin:0px;margin-top:4px;text-align:center;&quot;&gt;&lt;b&gt;AddWordGUI&lt;/b&gt;&lt;/p&gt;&lt;hr size=&quot;1&quot; style=&quot;border-style:solid;&quot;&gt;&lt;p style=&quot;margin:0px;margin-left:4px;&quot;&gt;- __flashcard_source&lt;/p&gt;&lt;p style=&quot;margin:0px;margin-left:4px;&quot;&gt;- __root&lt;/p&gt;&lt;p style=&quot;margin:0px;margin-left:4px;&quot;&gt;- __word_entry&lt;/p&gt;&lt;p style=&quot;margin:0px;margin-left:4px;&quot;&gt;- __translarion_entry&lt;/p&gt;&lt;p style=&quot;margin:0px;margin-left:4px;&quot;&gt;- __save_button&lt;br&gt;&lt;/p&gt;&lt;hr size=&quot;1&quot; style=&quot;border-style:solid;&quot;&gt;&lt;p style=&quot;margin:0px;margin-left:4px;&quot;&gt;- __try_save_word&lt;br&gt;&lt;/p&gt;" style="verticalAlign=top;align=left;overflow=fill;html=1;whiteSpace=wrap;" parent="1" vertex="1">
          <mxGeometry x="327" y="485" width="160" height="140" as="geometry" />
        </mxCell>
        <mxCell id="ZEexUDCB_ptRe4WTlXXO-10" value="&lt;p style=&quot;margin:0px;margin-top:4px;text-align:center;&quot;&gt;&lt;b&gt;Timer&lt;/b&gt;&lt;br&gt;&lt;/p&gt;&lt;hr size=&quot;1&quot; style=&quot;border-style:solid;&quot;&gt;&lt;p style=&quot;margin:0px;margin-left:4px;&quot;&gt;- __root&lt;/p&gt;&lt;p style=&quot;margin:0px;margin-left:4px;&quot;&gt;- __limit&lt;/p&gt;&lt;p style=&quot;margin:0px;margin-left:4px;&quot;&gt;- __time&lt;/p&gt;&lt;p style=&quot;margin:0px;margin-left:4px;&quot;&gt;- __timer&lt;/p&gt;&lt;p style=&quot;margin:0px;margin-left:4px;&quot;&gt;- __on_tick&lt;/p&gt;&lt;p style=&quot;margin:0px;margin-left:4px;&quot;&gt;- __on_end&lt;/p&gt;&lt;p style=&quot;margin:0px;margin-left:4px;&quot;&gt;+ time&lt;/p&gt;&lt;p style=&quot;margin:0px;margin-left:4px;&quot;&gt;+ limit&lt;br&gt;&lt;/p&gt;&lt;hr size=&quot;1&quot; style=&quot;border-style:solid;&quot;&gt;&lt;p style=&quot;margin:0px;margin-left:4px;&quot;&gt;- __tick()&lt;/p&gt;&lt;p style=&quot;margin:0px;margin-left:4px;&quot;&gt;+ start()&lt;br&gt;&lt;/p&gt;" style="verticalAlign=top;align=left;overflow=fill;html=1;whiteSpace=wrap;" parent="1" vertex="1">
          <mxGeometry x="517" y="794" width="160" height="200" as="geometry" />
        </mxCell>
        <mxCell id="ZEexUDCB_ptRe4WTlXXO-11" value="&lt;p style=&quot;margin:0px;margin-top:4px;text-align:center;&quot;&gt;&lt;b&gt;TestModeGUI&lt;/b&gt;&lt;br&gt;&lt;/p&gt;&lt;hr size=&quot;1&quot; style=&quot;border-style:solid;&quot;&gt;&lt;p style=&quot;margin:0px;margin-left:4px;&quot;&gt;- __root&lt;/p&gt;&lt;p style=&quot;margin:0px;margin-left:4px;&quot;&gt;- __on_start&lt;/p&gt;&lt;p style=&quot;margin:0px;margin-left:4px;&quot;&gt;- __on_end&lt;/p&gt;&lt;p style=&quot;margin:0px;margin-left:4px;&quot;&gt;- __time&lt;/p&gt;&lt;p style=&quot;margin:0px;margin-left:4px;&quot;&gt;- __timer_label&lt;/p&gt;&lt;p style=&quot;margin:0px;margin-left:4px;&quot;&gt;- __timer&lt;/p&gt;&lt;p style=&quot;margin:0px;margin-left:4px;&quot;&gt;- __start_button&lt;br&gt;&lt;/p&gt;&lt;hr size=&quot;1&quot; style=&quot;border-style:solid;&quot;&gt;&lt;p style=&quot;margin:0px;margin-left:4px;&quot;&gt;- __update_time()&lt;/p&gt;&lt;p style=&quot;margin:0px;margin-left:4px;&quot;&gt;- __start()&lt;/p&gt;&lt;p style=&quot;margin:0px;margin-left:4px;&quot;&gt;- __end()&lt;br&gt;&lt;/p&gt;" style="verticalAlign=top;align=left;overflow=fill;html=1;whiteSpace=wrap;" parent="1" vertex="1">
          <mxGeometry x="517" y="524" width="160" height="200" as="geometry" />
        </mxCell>
        <mxCell id="ZEexUDCB_ptRe4WTlXXO-12" value="&lt;p style=&quot;margin:0px;margin-top:4px;text-align:center;&quot;&gt;&lt;i&gt;&amp;lt;&amp;lt;Interface&amp;gt;&amp;gt;&lt;/i&gt;&lt;br&gt;&lt;b&gt;ITranslator&lt;/b&gt;&lt;/p&gt;&lt;hr size=&quot;1&quot; style=&quot;border-style:solid;&quot;&gt;&lt;p style=&quot;margin:0px;margin-left:4px;&quot;&gt;+ src&lt;/p&gt;&lt;p style=&quot;margin:0px;margin-left:4px;&quot;&gt;+ dst&lt;br&gt;&lt;/p&gt;&lt;hr size=&quot;1&quot; style=&quot;border-style:solid;&quot;&gt;&lt;p style=&quot;margin:0px;margin-left:4px;&quot;&gt;+ translate(text)&lt;br&gt;&lt;/p&gt;" style="verticalAlign=top;align=left;overflow=fill;html=1;whiteSpace=wrap;" parent="1" vertex="1">
          <mxGeometry x="502" y="245" width="190" height="110" as="geometry" />
        </mxCell>
        <mxCell id="ZEexUDCB_ptRe4WTlXXO-13" value="&lt;p style=&quot;margin:0px;margin-top:4px;text-align:center;&quot;&gt;&lt;b&gt;TranslatorGUI&lt;/b&gt;&lt;br&gt;&lt;/p&gt;&lt;hr size=&quot;1&quot; style=&quot;border-style:solid;&quot;&gt;&lt;p style=&quot;margin:0px;margin-left:4px;&quot;&gt;- __root&lt;/p&gt;&lt;p style=&quot;margin:0px;margin-left:4px;&quot;&gt;- __translator&lt;/p&gt;&lt;p style=&quot;margin:0px;margin-left:4px;&quot;&gt;- __input_text&lt;/p&gt;&lt;p style=&quot;margin:0px;margin-left:4px;&quot;&gt;- __output_text&lt;/p&gt;&lt;p style=&quot;margin:0px;margin-left:4px;&quot;&gt;- __translate_button&lt;br&gt;&lt;/p&gt;&lt;hr size=&quot;1&quot; style=&quot;border-style:solid;&quot;&gt;&lt;p style=&quot;margin:0px;margin-left:4px;&quot;&gt;- __display_text(text)&lt;/p&gt;&lt;p style=&quot;margin:0px;margin-left:4px;&quot;&gt;- __translate_text()&lt;br&gt;&lt;/p&gt;" style="verticalAlign=top;align=left;overflow=fill;html=1;whiteSpace=wrap;" parent="1" vertex="1">
          <mxGeometry x="517" y="40" width="160" height="160" as="geometry" />
        </mxCell>
        <mxCell id="ZEexUDCB_ptRe4WTlXXO-14" value="&lt;p style=&quot;margin:0px;margin-top:4px;text-align:center;&quot;&gt;&lt;b&gt;Translator&lt;/b&gt;&lt;br&gt;&lt;/p&gt;&lt;hr size=&quot;1&quot; style=&quot;border-style:solid;&quot;&gt;&lt;p style=&quot;margin:0px;margin-left:4px;&quot;&gt;- __translator&lt;/p&gt;&lt;p style=&quot;margin:0px;margin-left:4px;&quot;&gt;- __src&lt;/p&gt;&lt;p style=&quot;margin:0px;margin-left:4px;&quot;&gt;- __dst&lt;br&gt;&lt;/p&gt;&lt;hr size=&quot;1&quot; style=&quot;border-style:solid;&quot;&gt;&lt;p style=&quot;margin:0px;margin-left:4px;&quot;&gt;&lt;br&gt;&lt;/p&gt;" style="verticalAlign=top;align=left;overflow=fill;html=1;whiteSpace=wrap;" parent="1" vertex="1">
          <mxGeometry x="517" y="389" width="160" height="100" as="geometry" />
        </mxCell>
        <mxCell id="ZEexUDCB_ptRe4WTlXXO-15" value="&lt;p style=&quot;margin:0px;margin-top:4px;text-align:center;&quot;&gt;&lt;b&gt;Flashcard&lt;/b&gt;&lt;br&gt;&lt;/p&gt;&lt;hr size=&quot;1&quot; style=&quot;border-style:solid;&quot;&gt;&lt;p style=&quot;margin:0px;margin-left:4px;&quot;&gt;- __word&lt;/p&gt;&lt;p style=&quot;margin:0px;margin-left:4px;&quot;&gt;- __translation&lt;/p&gt;&lt;p style=&quot;margin:0px;margin-left:4px;&quot;&gt;- __correct&lt;/p&gt;&lt;p style=&quot;margin:0px;margin-left:4px;&quot;&gt;- __wrong&lt;/p&gt;&lt;p style=&quot;margin:0px;margin-left:4px;&quot;&gt;+ word&lt;/p&gt;&lt;p style=&quot;margin:0px;margin-left:4px;&quot;&gt;+ translation&lt;/p&gt;&lt;p style=&quot;margin:0px;margin-left:4px;&quot;&gt;+ correct&lt;/p&gt;&lt;p style=&quot;margin:0px;margin-left:4px;&quot;&gt;+ wrong&lt;/p&gt;&lt;p style=&quot;margin:0px;margin-left:4px;&quot;&gt;+ wc_ratio&lt;br&gt;&lt;/p&gt;&lt;hr size=&quot;1&quot; style=&quot;border-style:solid;&quot;&gt;&lt;p style=&quot;margin:0px;margin-left:4px;&quot;&gt;+ inc_correct()&lt;/p&gt;&lt;p style=&quot;margin:0px;margin-left:4px;&quot;&gt;+ inc_wrong()&lt;/p&gt;&lt;p style=&quot;margin:0px;margin-left:4px;&quot;&gt;+ reset()&lt;br&gt;&lt;/p&gt;" style="verticalAlign=top;align=left;overflow=fill;html=1;whiteSpace=wrap;" parent="1" vertex="1">
          <mxGeometry x="327" y="834" width="160" height="230" as="geometry" />
        </mxCell>
        <mxCell id="ZEexUDCB_ptRe4WTlXXO-16" value="&lt;p style=&quot;margin:0px;margin-top:4px;text-align:center;&quot;&gt;&lt;b&gt;WeightedFlashcardList&lt;/b&gt;&lt;br&gt;&lt;/p&gt;&lt;hr size=&quot;1&quot; style=&quot;border-style:solid;&quot;&gt;&lt;p style=&quot;margin:0px;margin-left:4px;&quot;&gt;- __rng&lt;/p&gt;&lt;p style=&quot;margin:0px;margin-left:4px;&quot;&gt;- __flashcards&lt;/p&gt;&lt;p style=&quot;margin:0px;margin-left:4px;&quot;&gt;- __current&lt;/p&gt;&lt;p style=&quot;margin:0px;margin-left:4px;&quot;&gt;- __total_correct&lt;/p&gt;&lt;p style=&quot;margin:0px;margin-left:4px;&quot;&gt;- __total_wrong&lt;/p&gt;&lt;p style=&quot;margin:0px;margin-left:4px;&quot;&gt;- __total_ratio_cache&lt;/p&gt;&lt;p style=&quot;margin:0px;margin-left:4px;&quot;&gt;- __progress&lt;/p&gt;&lt;p style=&quot;margin:0px;margin-left:4px;&quot;&gt;- __total_wc_ratio&lt;br&gt;&lt;/p&gt;&lt;hr size=&quot;1&quot; style=&quot;border-style:solid;&quot;&gt;&lt;p style=&quot;margin:0px;margin-left:4px;&quot;&gt;- __calculate_probability(card)&lt;br&gt;&lt;/p&gt;" style="verticalAlign=top;align=left;overflow=fill;html=1;whiteSpace=wrap;" parent="1" vertex="1">
          <mxGeometry x="125" y="762" width="170" height="190" as="geometry" />
        </mxCell>
        <mxCell id="ZEexUDCB_ptRe4WTlXXO-20" value="" style="endArrow=block;dashed=1;endFill=0;endSize=12;html=1;rounded=0;exitX=0.5;exitY=0;exitDx=0;exitDy=0;entryX=0.5;entryY=1;entryDx=0;entryDy=0;edgeStyle=orthogonalEdgeStyle;" parent="1" source="ZEexUDCB_ptRe4WTlXXO-16" target="ZEexUDCB_ptRe4WTlXXO-2" edge="1">
          <mxGeometry width="160" relative="1" as="geometry">
            <mxPoint x="210" y="826" as="sourcePoint" />
            <mxPoint x="370" y="826" as="targetPoint" />
          </mxGeometry>
        </mxCell>
        <mxCell id="ZEexUDCB_ptRe4WTlXXO-23" value="" style="endArrow=block;dashed=1;endFill=0;endSize=12;html=1;rounded=0;entryX=0.5;entryY=1;entryDx=0;entryDy=0;exitX=0.5;exitY=0;exitDx=0;exitDy=0;edgeStyle=orthogonalEdgeStyle;" parent="1" source="ZEexUDCB_ptRe4WTlXXO-14" target="ZEexUDCB_ptRe4WTlXXO-12" edge="1">
          <mxGeometry width="160" relative="1" as="geometry">
            <mxPoint x="812" y="562" as="sourcePoint" />
            <mxPoint x="597" y="351.9999999999999" as="targetPoint" />
          </mxGeometry>
        </mxCell>
        <mxCell id="ZEexUDCB_ptRe4WTlXXO-47" value="" style="endArrow=diamondThin;endFill=1;endSize=24;html=1;rounded=0;entryX=0.75;entryY=1;entryDx=0;entryDy=0;exitX=0.5;exitY=0;exitDx=0;exitDy=0;edgeStyle=orthogonalEdgeStyle;" parent="1" source="ZEexUDCB_ptRe4WTlXXO-9" target="ZEexUDCB_ptRe4WTlXXO-8" edge="1">
          <mxGeometry width="160" relative="1" as="geometry">
            <mxPoint x="340" y="440" as="sourcePoint" />
            <mxPoint x="500" y="440" as="targetPoint" />
          </mxGeometry>
        </mxCell>
        <mxCell id="ZEexUDCB_ptRe4WTlXXO-48" value="1" style="edgeLabel;html=1;align=center;verticalAlign=middle;resizable=0;points=[];" parent="ZEexUDCB_ptRe4WTlXXO-47" vertex="1" connectable="0">
          <mxGeometry x="-0.1251" y="5" relative="1" as="geometry">
            <mxPoint x="-9" y="-31" as="offset" />
          </mxGeometry>
        </mxCell>
        <mxCell id="ZEexUDCB_ptRe4WTlXXO-50" value="1" style="edgeLabel;html=1;align=center;verticalAlign=middle;resizable=0;points=[];" parent="ZEexUDCB_ptRe4WTlXXO-47" vertex="1" connectable="0">
          <mxGeometry x="-0.1831" y="-2" relative="1" as="geometry">
            <mxPoint x="7" y="18" as="offset" />
          </mxGeometry>
        </mxCell>
        <mxCell id="ZEexUDCB_ptRe4WTlXXO-51" value="" style="endArrow=diamondThin;endFill=0;endSize=24;html=1;rounded=0;entryX=0.25;entryY=1;entryDx=0;entryDy=0;edgeStyle=orthogonalEdgeStyle;exitX=0.5;exitY=0;exitDx=0;exitDy=0;" parent="1" source="ZEexUDCB_ptRe4WTlXXO-2" target="ZEexUDCB_ptRe4WTlXXO-8" edge="1">
          <mxGeometry width="160" relative="1" as="geometry">
            <mxPoint x="200" y="420" as="sourcePoint" />
            <mxPoint x="320" y="450" as="targetPoint" />
          </mxGeometry>
        </mxCell>
        <mxCell id="ZEexUDCB_ptRe4WTlXXO-52" value="&lt;div&gt;1&lt;/div&gt;" style="edgeLabel;html=1;align=center;verticalAlign=middle;resizable=0;points=[];" parent="ZEexUDCB_ptRe4WTlXXO-51" vertex="1" connectable="0">
          <mxGeometry x="0.8825" y="-1" relative="1" as="geometry">
            <mxPoint x="-17" y="-1" as="offset" />
          </mxGeometry>
        </mxCell>
        <mxCell id="ZEexUDCB_ptRe4WTlXXO-53" value="1" style="edgeLabel;html=1;align=center;verticalAlign=middle;resizable=0;points=[];" parent="ZEexUDCB_ptRe4WTlXXO-51" vertex="1" connectable="0">
          <mxGeometry x="-0.8333" relative="1" as="geometry">
            <mxPoint x="8" y="5" as="offset" />
          </mxGeometry>
        </mxCell>
        <mxCell id="ZEexUDCB_ptRe4WTlXXO-54" value="" style="endArrow=diamondThin;endFill=0;endSize=24;html=1;rounded=0;entryX=1;entryY=0.25;entryDx=0;entryDy=0;exitX=0.25;exitY=0;exitDx=0;exitDy=0;edgeStyle=orthogonalEdgeStyle;" parent="1" source="ZEexUDCB_ptRe4WTlXXO-15" target="ZEexUDCB_ptRe4WTlXXO-16" edge="1">
          <mxGeometry width="160" relative="1" as="geometry">
            <mxPoint x="350" y="790" as="sourcePoint" />
            <mxPoint x="510" y="790" as="targetPoint" />
          </mxGeometry>
        </mxCell>
        <mxCell id="ZEexUDCB_ptRe4WTlXXO-55" value="1" style="edgeLabel;html=1;align=center;verticalAlign=middle;resizable=0;points=[];" parent="ZEexUDCB_ptRe4WTlXXO-54" vertex="1" connectable="0">
          <mxGeometry x="0.7312" y="-4" relative="1" as="geometry">
            <mxPoint x="-5" y="18" as="offset" />
          </mxGeometry>
        </mxCell>
        <mxCell id="cpF7dlshNfHZRJUTmk8Q-1" value="*" style="edgeLabel;html=1;align=center;verticalAlign=middle;resizable=0;points=[];" vertex="1" connectable="0" parent="ZEexUDCB_ptRe4WTlXXO-54">
          <mxGeometry x="-0.7513" relative="1" as="geometry">
            <mxPoint x="9" as="offset" />
          </mxGeometry>
        </mxCell>
        <mxCell id="ZEexUDCB_ptRe4WTlXXO-57" value="" style="endArrow=diamondThin;endFill=1;endSize=24;html=1;rounded=0;entryX=0.5;entryY=1;entryDx=0;entryDy=0;exitX=0.5;exitY=0;exitDx=0;exitDy=0;edgeStyle=orthogonalEdgeStyle;" parent="1" source="ZEexUDCB_ptRe4WTlXXO-10" target="ZEexUDCB_ptRe4WTlXXO-11" edge="1">
          <mxGeometry width="160" relative="1" as="geometry">
            <mxPoint x="470" y="760" as="sourcePoint" />
            <mxPoint x="630" y="760" as="targetPoint" />
          </mxGeometry>
        </mxCell>
        <mxCell id="ZEexUDCB_ptRe4WTlXXO-58" value="1" style="edgeLabel;html=1;align=center;verticalAlign=middle;resizable=0;points=[];" parent="ZEexUDCB_ptRe4WTlXXO-57" vertex="1" connectable="0">
          <mxGeometry x="0.6367" y="-3" relative="1" as="geometry">
            <mxPoint x="-18" y="-4" as="offset" />
          </mxGeometry>
        </mxCell>
        <mxCell id="ZEexUDCB_ptRe4WTlXXO-59" value="1" style="edgeLabel;html=1;align=center;verticalAlign=middle;resizable=0;points=[];" parent="ZEexUDCB_ptRe4WTlXXO-57" vertex="1" connectable="0">
          <mxGeometry x="-0.6857" relative="1" as="geometry">
            <mxPoint x="7" y="1" as="offset" />
          </mxGeometry>
        </mxCell>
        <mxCell id="ZEexUDCB_ptRe4WTlXXO-60" value="" style="endArrow=diamondThin;endFill=0;endSize=24;html=1;rounded=0;exitX=0.5;exitY=0;exitDx=0;exitDy=0;entryX=0.5;entryY=1;entryDx=0;entryDy=0;edgeStyle=orthogonalEdgeStyle;" parent="1" target="ZEexUDCB_ptRe4WTlXXO-13" edge="1">
          <mxGeometry width="160" relative="1" as="geometry">
            <mxPoint x="597" y="241.9999999999999" as="sourcePoint" />
            <mxPoint x="760" y="204" as="targetPoint" />
          </mxGeometry>
        </mxCell>
        <mxCell id="ZEexUDCB_ptRe4WTlXXO-61" value="1" style="edgeLabel;html=1;align=center;verticalAlign=middle;resizable=0;points=[];" parent="ZEexUDCB_ptRe4WTlXXO-60" vertex="1" connectable="0">
          <mxGeometry x="0.3401" y="-2" relative="1" as="geometry">
            <mxPoint x="-19" y="-5" as="offset" />
          </mxGeometry>
        </mxCell>
        <mxCell id="ZEexUDCB_ptRe4WTlXXO-62" value="1" style="edgeLabel;html=1;align=center;verticalAlign=middle;resizable=0;points=[];" parent="ZEexUDCB_ptRe4WTlXXO-60" vertex="1" connectable="0">
          <mxGeometry x="-0.6395" y="2" relative="1" as="geometry">
            <mxPoint x="13" y="-2" as="offset" />
          </mxGeometry>
        </mxCell>
        <mxCell id="cpF7dlshNfHZRJUTmk8Q-2" value="Use" style="endArrow=open;endSize=12;dashed=1;html=1;rounded=0;exitX=0.5;exitY=1;exitDx=0;exitDy=0;entryX=0.5;entryY=0;entryDx=0;entryDy=0;edgeStyle=orthogonalEdgeStyle;" edge="1" parent="1" source="ZEexUDCB_ptRe4WTlXXO-9" target="ZEexUDCB_ptRe4WTlXXO-15">
          <mxGeometry width="160" relative="1" as="geometry">
            <mxPoint x="400" y="720" as="sourcePoint" />
            <mxPoint x="560" y="720" as="targetPoint" />
          </mxGeometry>
        </mxCell>
      </root>
    </mxGraphModel>
  </diagram>
</mxfile>
